<svg xmlns="http://www.w3.org/2000/svg" viewBox="0 0 307.23 86.09"><g id="Capa_2" data-name="Capa 2"><g id="Vectores"><path d="M149.19,40.72V18.89h6.74a8.31,8.31,0,0,1,5.46,1.56,5.76,5.76,0,0,1,1.87,4.67,5.88,5.88,0,0,1-1.88,4.7,8.08,8.08,0,0,1-5.45,1.63h-3.57v9.27Zm3.17-12.09h3.25a5.7,5.7,0,0,0,3.29-.83,3,3,0,0,0,1.19-2.65,3,3,0,0,0-1.14-2.6,5.76,5.76,0,0,0-3.34-.81h-3.25Z"/><path d="M166.64,40.72V18.89h6.74a10,10,0,0,1,4.18.75,5.06,5.06,0,0,1,2.38,2.15,6.74,6.74,0,0,1,.77,3.3,5.94,5.94,0,0,1-1.62,4.42,7.24,7.24,0,0,1-4.65,1.85c-.35,0-.76,0-1.22,0h-3.38v9.33Zm3.2-12.15h3.22a7.31,7.31,0,0,0,2.31-.33A3.35,3.35,0,0,0,177,27.16a3.23,3.23,0,0,0,.59-2,3.17,3.17,0,0,0-.59-2,3.26,3.26,0,0,0-1.6-1.05,7.64,7.64,0,0,0-2.29-.31h-3.22Zm8.89,12.15L173.13,31l3.25-.41,6,10.12Z"/><path d="M194.34,41.13A10.05,10.05,0,0,1,189,39.72a9.56,9.56,0,0,1-3.58-4,13,13,0,0,1-1.29-5.94,13.12,13.12,0,0,1,1.29-6,9.56,9.56,0,0,1,3.58-4,10.05,10.05,0,0,1,5.35-1.41,10.25,10.25,0,0,1,5.42,1.41,9.63,9.63,0,0,1,3.6,3.95,13,13,0,0,1,1.28,6,12.87,12.87,0,0,1-1.3,5.94,9.58,9.58,0,0,1-3.62,4A10.14,10.14,0,0,1,194.34,41.13Zm0-3a6.48,6.48,0,0,0,6.2-3.9,10.23,10.23,0,0,0,.88-4.37,10.31,10.31,0,0,0-.88-4.4,6.81,6.81,0,0,0-2.45-2.88,6.7,6.7,0,0,0-3.75-1,6.79,6.79,0,0,0-3.72,1,6.57,6.57,0,0,0-2.44,2.87,10.39,10.39,0,0,0-.86,4.43,10.31,10.31,0,0,0,.86,4.4,6.52,6.52,0,0,0,2.44,2.87A6.79,6.79,0,0,0,194.34,38.09Z"/><path d="M212.54,40.72V32.27l-7.71-13.38h3.64L214,29.07l5.7-10.18h3.61l-7.62,13.38v8.45Z"/><path d="M226,40.72V18.89h14.44v2.85H229.21v6.39h10.3V31h-10.3v6.89h11.24v2.85Z"/><path d="M253.42,41.13a10,10,0,0,1-5.34-1.41,9.58,9.58,0,0,1-3.59-4,13.2,13.2,0,0,1-1.28-6,13.15,13.15,0,0,1,1.28-5.94,9.65,9.65,0,0,1,3.59-4,10.91,10.91,0,0,1,11.15.25,9.14,9.14,0,0,1,3.53,4.61l-3,1.09a6.77,6.77,0,0,0-12.51-.45,10.19,10.19,0,0,0-.86,4.4,10.31,10.31,0,0,0,.86,4.42,6.6,6.6,0,0,0,2.44,2.86,6.73,6.73,0,0,0,10.07-3.3l3,1.06a9.32,9.32,0,0,1-3.53,4.61A10,10,0,0,1,253.42,41.13Z"/><path d="M271.19,40.72v-19H264V18.89h17.48v2.85h-7.11v19Z"/><path d="M292.24,41.13a10,10,0,0,1-5.34-1.41,9.58,9.58,0,0,1-3.59-4A13,13,0,0,1,282,29.82a13.12,13.12,0,0,1,1.28-6,9.58,9.58,0,0,1,3.59-4,10,10,0,0,1,5.34-1.41,10.23,10.23,0,0,1,5.42,1.41,9.57,9.57,0,0,1,3.6,3.95,13,13,0,0,1,1.29,6,13,13,0,0,1-1.3,5.94,9.71,9.71,0,0,1-3.62,4A10.17,10.17,0,0,1,292.24,41.13Zm0-3a6.76,6.76,0,0,0,3.76-1,6.67,6.67,0,0,0,2.44-2.88,10.09,10.09,0,0,0,.88-4.37,10.16,10.16,0,0,0-.88-4.4,7,7,0,0,0-9.91-2.9,6.59,6.59,0,0,0-2.45,2.87,10.54,10.54,0,0,0-.86,4.43,10.47,10.47,0,0,0,.86,4.4,6.53,6.53,0,0,0,2.45,2.87A6.75,6.75,0,0,0,292.24,38.09Z"/><path d="M144.48,67V45.2h14.78v4.39H149.4v4H158V58H149.4V67Z"/><path d="M171.33,67.6a10.69,10.69,0,0,1-5.58-1.44,9.93,9.93,0,0,1-3.76-4,12.76,12.76,0,0,1-1.35-6,12.83,12.83,0,0,1,1.35-6,9.89,9.89,0,0,1,3.76-4,11.61,11.61,0,0,1,11.18,0,9.78,9.78,0,0,1,3.76,4A12.9,12.9,0,0,1,182,56.14a12.71,12.71,0,0,1-1.36,6,10,10,0,0,1-3.78,4A10.76,10.76,0,0,1,171.33,67.6Zm0-4.69a5.49,5.49,0,0,0,3.07-.84,5.41,5.41,0,0,0,2-2.35,8.41,8.41,0,0,0,.71-3.58,8.53,8.53,0,0,0-.71-3.62,5.47,5.47,0,0,0-2-2.35,5.57,5.57,0,0,0-3.07-.83,5.68,5.68,0,0,0-3.06.81,5.35,5.35,0,0,0-2,2.34,9.66,9.66,0,0,0,0,7.27,5.27,5.27,0,0,0,2,2.33A5.69,5.69,0,0,0,171.33,62.91Z"/><path d="M188.31,67V49.59h-6.39V45.2h17.73v4.39h-6.36V67Z"/><path d="M210.2,67.6a10.65,10.65,0,0,1-5.57-1.44,9.93,9.93,0,0,1-3.76-4,12.76,12.76,0,0,1-1.35-6,12.83,12.83,0,0,1,1.35-6,9.89,9.89,0,0,1,3.76-4,10.65,10.65,0,0,1,5.57-1.44,10.81,10.81,0,0,1,5.61,1.43,9.78,9.78,0,0,1,3.76,4,12.9,12.9,0,0,1,1.35,6.06,12.83,12.83,0,0,1-1.36,6,10,10,0,0,1-3.78,4A10.77,10.77,0,0,1,210.2,67.6Zm0-4.69a5.45,5.45,0,0,0,3.07-.84,5.37,5.37,0,0,0,2-2.35,8.41,8.41,0,0,0,.71-3.58,8.53,8.53,0,0,0-.71-3.62,5.42,5.42,0,0,0-2-2.35,5.52,5.52,0,0,0-3.07-.83,5.65,5.65,0,0,0-3,.81,5.37,5.37,0,0,0-2,2.34,9.79,9.79,0,0,0,0,7.27,5.29,5.29,0,0,0,2,2.33A5.65,5.65,0,0,0,210.2,62.91Z"/><path d="M223.77,67V45.2h4.92V62.65h9V67Z"/><path d="M239.75,67V45.2h4.92V67Z"/><path d="M248.36,67V45.2h8.15a8.43,8.43,0,0,1,5.26,1.48,4.84,4.84,0,0,1,1.91,4.07,5.75,5.75,0,0,1-.56,2.57,5,5,0,0,1-1.57,1.85,5.23,5.23,0,0,1,2.52,2.08,7,7,0,0,1-1.12,8A7.56,7.56,0,0,1,257.67,67Zm4.92-13.44h3.23a2.34,2.34,0,0,0,1.66-.55,1.94,1.94,0,0,0,.59-1.52,1.61,1.61,0,0,0-.58-1.34,2.54,2.54,0,0,0-1.67-.47h-3.23Zm0,8.93h4c1.8,0,2.69-.75,2.69-2.26a2.09,2.09,0,0,0-.7-1.69,3,3,0,0,0-2-.59h-4Z"/><path d="M267.72,67V45.2h7.68a10.34,10.34,0,0,1,4.42.8,5.16,5.16,0,0,1,2.41,2.26,7.31,7.31,0,0,1,.75,3.4,6.27,6.27,0,0,1-1.82,4.87,7.78,7.78,0,0,1-5.1,1.83h-3.42V67ZM272.64,54h2.26a8.12,8.12,0,0,0,1.5-.14,2.26,2.26,0,0,0,1.19-.63,2,2,0,0,0,.47-1.49,1.94,1.94,0,0,0-.47-1.46,2.11,2.11,0,0,0-1.19-.56,10.38,10.38,0,0,0-1.5-.11h-2.26ZM279.35,67,274,57.83l5-.6,6,9.81Z"/><path d="M296.52,67.6a10.69,10.69,0,0,1-5.58-1.44,9.93,9.93,0,0,1-3.76-4,12.76,12.76,0,0,1-1.35-6,12.83,12.83,0,0,1,1.35-6,9.89,9.89,0,0,1,3.76-4,11.61,11.61,0,0,1,11.18,0,9.78,9.78,0,0,1,3.76,4,12.9,12.9,0,0,1,1.35,6.06,12.71,12.71,0,0,1-1.36,6,10,10,0,0,1-3.78,4A10.76,10.76,0,0,1,296.52,67.6Zm0-4.69a5.49,5.49,0,0,0,3.07-.84,5.43,5.43,0,0,0,2-2.35,8.41,8.41,0,0,0,.7-3.58,8.53,8.53,0,0,0-.7-3.62,5.49,5.49,0,0,0-2-2.35,5.57,5.57,0,0,0-3.07-.83,5.68,5.68,0,0,0-3.06.81,5.35,5.35,0,0,0-2,2.34,9.66,9.66,0,0,0,0,7.27,5.27,5.27,0,0,0,2,2.33A5.69,5.69,0,0,0,296.52,62.91Z"/><path d="M118.71,0l-7.12,25.73H78.21a25.63,25.63,0,0,0-37.71,0H0L7.29,0Z"/><path d="M37.22,30.16a25.42,25.42,0,0,0-3.48,12.9,25.17,25.17,0,0,0,3.48,12.86H0L7.29,30.16Z"/><path d="M118.71,30.16l-7.12,25.76H81.46a25.17,25.17,0,0,0,3.48-12.86,25.42,25.42,0,0,0-3.48-12.9Z"/><path d="M118.71,60.35l-7.12,25.74H0L7.29,60.35H40.5a25.61,25.61,0,0,0,37.71,0Z"/><path d="M59.35,21.87A21.17,21.17,0,1,0,80.52,43,21.17,21.17,0,0,0,59.35,21.87Zm0,37.93A16.76,16.76,0,1,1,76.11,43,16.75,16.75,0,0,1,59.35,59.8Z"/></g></g></svg>